<svg width="350" height="350" viewBox="0 0 250 250" fill="none" xmlns="http://www.w3.org/2000/svg">
  <path d="M238 221L228 215.226L228 226.773L238 221ZM13 222L229 222L229 220L13 220L13 222Z"
    fill="currentColor" />
  <path
    d="M228.752 207.904L228.512 207.12L230.88 203.568H232.288V203.728L228.752 207.904ZM224.016 212L224.032 211.84L227.76 207.36L228.048 208.208L225.44 212H224.016ZM230.464 212.112C230.133 212.112 229.851 212.053 229.616 211.936C229.392 211.808 229.189 211.595 229.008 211.296C228.837 210.987 228.645 210.56 228.432 210.016L226.672 205.168C226.608 205.008 226.512 204.88 226.384 204.784C226.267 204.688 226.107 204.613 225.904 204.56C225.712 204.496 225.472 204.443 225.184 204.4L224.944 204.368L225.104 203.568H227.488L229.776 209.856C229.915 210.187 230.032 210.448 230.128 210.64C230.224 210.821 230.325 210.949 230.432 211.024C230.549 211.099 230.699 211.136 230.88 211.136C231.083 211.136 231.28 211.104 231.472 211.04C231.675 210.976 231.829 210.933 231.936 210.912L231.824 211.792C231.664 211.877 231.472 211.952 231.248 212.016C231.035 212.08 230.773 212.112 230.464 212.112Z"
    fill="currentColor" />
  <path d="M41 12L35.2265 22L46.7735 22L41 12ZM42 239L42 21L40 21L40 239L42 239Z"
    fill="currentColor" />
  <path
    d="M53.104 27.416L51.824 20.12C51.8027 19.9813 51.7387 19.8693 51.632 19.784C51.5253 19.6987 51.3813 19.6293 51.2 19.576C51.0293 19.512 50.816 19.4533 50.56 19.4L50.384 19.368L50.528 18.568H52.96L54.128 25.912L53.76 26.84L53.104 27.416ZM53.776 26.008C54.064 25.3893 54.352 24.7707 54.64 24.152C54.9387 23.5227 55.232 22.8987 55.52 22.28C55.8187 21.6613 56.112 21.0427 56.4 20.424C56.6987 19.8053 56.992 19.1867 57.28 18.568H58.64V18.728C58.352 19.2507 58.064 19.7787 57.776 20.312C57.488 20.8453 57.2 21.3787 56.912 21.912C56.6347 22.4347 56.3467 22.968 56.048 23.512C55.76 24.0453 55.4667 24.584 55.168 25.128C54.88 25.6613 54.5867 26.2 54.288 26.744C53.8933 27.4907 53.5147 28.1147 53.152 28.616C52.7893 29.128 52.4427 29.5387 52.112 29.848C51.7813 30.1573 51.4453 30.376 51.104 30.504C50.7627 30.6427 50.4107 30.712 50.048 30.712C49.6853 30.712 49.3813 30.6693 49.136 30.584C48.8907 30.5093 48.7307 30.4507 48.656 30.408L48.912 29.16C48.9867 29.192 49.1413 29.24 49.376 29.304C49.6 29.3787 49.8827 29.416 50.224 29.416C50.4693 29.416 50.72 29.368 50.976 29.272C51.232 29.176 51.4933 29.0053 51.76 28.76C52.0267 28.5253 52.3093 28.184 52.608 27.736C52.9173 27.288 53.248 26.7173 53.6 26.024L53.776 26.008Z"
    fill="currentColor" />
  <path
    d="M207.061 207.061C207.646 206.475 207.646 205.525 207.061 204.939L197.515 195.393C196.929 194.808 195.979 194.808 195.393 195.393C194.808 195.979 194.808 196.929 195.393 197.515L203.879 206L195.393 214.485C194.808 215.071 194.808 216.021 195.393 216.607C195.979 217.192 196.929 217.192 197.515 216.607L207.061 207.061ZM65 207.5L206 207.5L206 204.5L65 204.5L65 207.5Z"
    fill="currentColor" />
  <path
    d="M28.0607 61.9393C27.4749 61.3536 26.5251 61.3536 25.9393 61.9393L16.3934 71.4853C15.8076 72.0711 15.8076 73.0208 16.3934 73.6066C16.9792 74.1924 17.9289 74.1924 18.5147 73.6066L27 65.1213L35.4853 73.6066C36.0711 74.1924 37.0208 74.1924 37.6066 73.6066C38.1924 73.0208 38.1924 72.0711 37.6066 71.4853L28.0607 61.9393ZM28.5 199L28.5 63L25.5 63L25.5 199L28.5 199Z"
    fill="currentColor" />
  <path
    d="M89.64 188.808C89.352 188.808 89.112 188.723 88.92 188.552C88.728 188.371 88.632 188.12 88.632 187.8C88.632 187.48 88.728 187.235 88.92 187.064C89.112 186.893 89.352 186.808 89.64 186.808C89.9387 186.808 90.184 186.893 90.376 187.064C90.568 187.235 90.664 187.48 90.664 187.8C90.664 188.12 90.568 188.371 90.376 188.552C90.184 188.723 89.9387 188.808 89.64 188.808ZM90.456 190.568V197.512C90.456 197.811 90.5787 198.008 90.824 198.104C91.0693 198.2 91.3947 198.248 91.8 198.248H91.848V199H87.656V198.248H87.688C88.0933 198.248 88.4187 198.2 88.664 198.104C88.92 198.008 89.048 197.811 89.048 197.512V192.12C89.048 191.885 88.9467 191.725 88.744 191.64C88.5413 191.555 88.232 191.475 87.816 191.4L87.64 191.368V190.568H90.456ZM92.9056 199V198.248H92.9536C93.2203 198.248 93.455 198.227 93.6576 198.184C93.8603 198.141 94.015 198.061 94.1216 197.944C94.239 197.827 94.2976 197.667 94.2976 197.464V192.12C94.2976 191.96 94.2496 191.843 94.1536 191.768C94.0683 191.683 93.935 191.613 93.7536 191.56C93.5723 191.507 93.343 191.453 93.0656 191.4L92.9056 191.368V190.568H95.4976L95.6256 192.344L95.7216 192.456V198.088C95.7216 198.12 95.7856 198.152 95.9136 198.184C96.0416 198.205 96.1963 198.221 96.3776 198.232C96.559 198.243 96.7243 198.248 96.8736 198.248H96.9216V199H92.9056ZM102.49 199H98.4736V198.248H98.5216C98.671 198.248 98.8363 198.243 99.0176 198.232C99.199 198.221 99.3536 198.205 99.4816 198.184C99.6203 198.152 99.6896 198.12 99.6896 198.088V193.048C99.6896 192.685 99.647 192.387 99.5616 192.152C99.4763 191.917 99.3323 191.741 99.1296 191.624C98.927 191.507 98.655 191.448 98.3136 191.448C97.9616 191.448 97.6203 191.517 97.2896 191.656C96.959 191.795 96.639 192.003 96.3296 192.28C96.031 192.557 95.7323 192.904 95.4336 193.32V192.392C95.7323 191.955 96.0416 191.592 96.3616 191.304C96.6923 191.005 97.0443 190.781 97.4176 190.632C97.791 190.483 98.1963 190.408 98.6336 190.408C99.1563 190.408 99.599 190.499 99.9616 190.68C100.324 190.851 100.607 191.123 100.81 191.496C101.012 191.859 101.114 192.317 101.114 192.872V197.464C101.114 197.667 101.167 197.827 101.274 197.944C101.391 198.061 101.546 198.141 101.738 198.184C101.94 198.227 102.18 198.248 102.458 198.248H102.49V199ZM108.026 198.232C108.496 198.232 108.896 198.152 109.226 197.992C109.568 197.821 109.861 197.608 110.106 197.352C110.352 197.085 110.56 196.819 110.73 196.552L111.466 197.208C111.242 197.581 110.965 197.917 110.634 198.216C110.314 198.515 109.93 198.749 109.482 198.92C109.045 199.091 108.544 199.176 107.978 199.176C107.104 199.176 106.341 198.995 105.69 198.632C105.04 198.259 104.538 197.747 104.186 197.096C103.834 196.435 103.658 195.667 103.658 194.792C103.658 193.896 103.84 193.123 104.202 192.472C104.576 191.821 105.093 191.315 105.754 190.952C106.416 190.589 107.194 190.408 108.09 190.408C108.645 190.408 109.13 190.461 109.546 190.568C109.973 190.664 110.33 190.781 110.618 190.92C110.906 191.059 111.12 191.181 111.258 191.288V193.576H109.818V191.592C109.936 191.613 110.042 191.645 110.138 191.688C110.234 191.72 110.314 191.773 110.378 191.848C110.442 191.912 110.49 191.987 110.522 192.072C110.554 192.157 110.565 192.253 110.554 192.36C110.341 192.072 110.01 191.832 109.562 191.64C109.114 191.448 108.624 191.352 108.09 191.352C107.429 191.352 106.88 191.491 106.442 191.768C106.016 192.045 105.696 192.445 105.482 192.968C105.269 193.48 105.162 194.088 105.162 194.792C105.162 195.336 105.221 195.821 105.338 196.248C105.466 196.675 105.648 197.037 105.882 197.336C106.117 197.624 106.41 197.848 106.762 198.008C107.125 198.157 107.546 198.232 108.026 198.232ZM118.575 190.456V191.96C118.501 191.928 118.41 191.907 118.303 191.896C118.197 191.885 118.085 191.875 117.967 191.864C117.861 191.853 117.754 191.848 117.647 191.848C117.359 191.848 117.098 191.88 116.863 191.944C116.639 192.008 116.431 192.109 116.239 192.248C116.058 192.376 115.882 192.547 115.711 192.76C115.551 192.973 115.381 193.229 115.199 193.528V192.68C115.423 192.2 115.669 191.789 115.935 191.448C116.213 191.107 116.517 190.845 116.847 190.664C117.189 190.483 117.567 190.392 117.983 190.392C118.111 190.392 118.229 190.397 118.335 190.408C118.442 190.419 118.522 190.435 118.575 190.456ZM112.671 199V198.248H112.719C113.125 198.248 113.45 198.2 113.695 198.104C113.941 197.997 114.063 197.784 114.063 197.464V192.12C114.063 191.96 114.015 191.843 113.919 191.768C113.834 191.683 113.701 191.613 113.519 191.56C113.338 191.507 113.109 191.453 112.831 191.4L112.671 191.368V190.568H115.263L115.391 192.776L115.487 192.68V197.832C115.487 197.949 115.562 198.04 115.711 198.104C115.861 198.168 116.037 198.211 116.239 198.232C116.442 198.243 116.618 198.248 116.767 198.248H117.103V199H112.671ZM121.036 194.856C121.036 195.443 121.105 195.949 121.244 196.376C121.393 196.803 121.596 197.155 121.852 197.432C122.108 197.699 122.407 197.901 122.748 198.04C123.089 198.168 123.463 198.232 123.868 198.232C124.305 198.232 124.684 198.152 125.004 197.992C125.335 197.821 125.617 197.613 125.852 197.368C126.087 197.123 126.284 196.867 126.444 196.6L127.212 197.24C127.009 197.603 126.748 197.933 126.428 198.232C126.108 198.531 125.729 198.765 125.292 198.936C124.865 199.096 124.38 199.176 123.836 199.176C123.036 199.176 122.311 199.005 121.66 198.664C121.02 198.323 120.513 197.827 120.14 197.176C119.767 196.525 119.58 195.747 119.58 194.84C119.58 193.955 119.751 193.181 120.092 192.52C120.444 191.859 120.919 191.341 121.516 190.968C122.113 190.595 122.791 190.408 123.548 190.408C124.156 190.408 124.684 190.509 125.132 190.712C125.591 190.904 125.975 191.203 126.284 191.608C126.593 192.003 126.828 192.499 126.988 193.096C127.148 193.683 127.228 194.376 127.228 195.176H120.716V194.264H126.172L125.74 194.616C125.719 194.029 125.66 193.533 125.564 193.128C125.479 192.712 125.351 192.376 125.18 192.12C125.009 191.853 124.785 191.661 124.508 191.544C124.241 191.416 123.921 191.352 123.548 191.352C123.185 191.352 122.849 191.427 122.54 191.576C122.231 191.725 121.964 191.949 121.74 192.248C121.516 192.547 121.34 192.915 121.212 193.352C121.095 193.789 121.036 194.291 121.036 194.856ZM134.228 193.864V194.712C133.609 194.787 133.076 194.872 132.628 194.968C132.18 195.064 131.801 195.176 131.492 195.304C131.183 195.432 130.932 195.576 130.74 195.736C130.559 195.885 130.425 196.061 130.34 196.264C130.265 196.467 130.228 196.691 130.228 196.936C130.228 197.213 130.287 197.453 130.404 197.656C130.521 197.848 130.692 197.997 130.916 198.104C131.14 198.211 131.396 198.264 131.684 198.264C132.036 198.264 132.356 198.179 132.644 198.008C132.932 197.837 133.204 197.592 133.46 197.272C133.716 196.952 133.961 196.557 134.196 196.088V197.096C134.004 197.523 133.769 197.891 133.492 198.2C133.215 198.509 132.895 198.749 132.532 198.92C132.18 199.091 131.78 199.176 131.332 199.176C130.841 199.176 130.399 199.091 130.004 198.92C129.62 198.739 129.316 198.483 129.092 198.152C128.868 197.811 128.756 197.405 128.756 196.936C128.756 196.499 128.857 196.115 129.06 195.784C129.273 195.453 129.599 195.171 130.036 194.936C130.484 194.691 131.049 194.483 131.732 194.312C132.425 194.141 133.257 193.992 134.228 193.864ZM134.116 199L133.988 197.192L133.876 197.112V193.048C133.876 192.632 133.817 192.301 133.7 192.056C133.593 191.8 133.417 191.619 133.172 191.512C132.927 191.405 132.601 191.352 132.196 191.352C131.599 191.352 131.108 191.448 130.724 191.64C130.34 191.832 130.052 192.045 129.86 192.28C129.849 192.173 129.86 192.072 129.892 191.976C129.935 191.88 129.988 191.795 130.052 191.72C130.127 191.635 130.212 191.565 130.308 191.512C130.415 191.448 130.527 191.4 130.644 191.368V193.16H129.236V191.304C129.396 191.187 129.615 191.059 129.892 190.92C130.169 190.781 130.511 190.664 130.916 190.568C131.321 190.461 131.775 190.408 132.276 190.408C132.692 190.408 133.076 190.451 133.428 190.536C133.791 190.621 134.111 190.76 134.388 190.952C134.676 191.144 134.895 191.4 135.044 191.72C135.204 192.029 135.284 192.413 135.284 192.872V197.576C135.284 197.725 135.337 197.843 135.444 197.928C135.561 198.013 135.716 198.077 135.908 198.12C136.111 198.152 136.345 198.179 136.612 198.2L136.66 198.216V199H134.116ZM142.938 196.792C142.938 196.547 142.874 196.344 142.746 196.184C142.628 196.013 142.463 195.88 142.25 195.784C142.047 195.677 141.812 195.587 141.546 195.512C141.29 195.437 141.018 195.368 140.73 195.304C140.388 195.229 140.047 195.139 139.706 195.032C139.375 194.915 139.071 194.771 138.794 194.6C138.516 194.419 138.298 194.184 138.138 193.896C137.978 193.608 137.898 193.251 137.898 192.824C137.898 192.333 138.015 191.907 138.25 191.544C138.495 191.181 138.847 190.904 139.306 190.712C139.764 190.509 140.324 190.408 140.986 190.408C141.498 190.408 141.94 190.44 142.314 190.504C142.698 190.568 143.018 190.648 143.274 190.744C143.53 190.84 143.722 190.931 143.85 191.016V192.936H142.442V191.32C142.559 191.32 142.655 191.336 142.73 191.368C142.815 191.4 142.879 191.448 142.922 191.512C142.975 191.576 143.007 191.656 143.018 191.752C143.039 191.848 143.044 191.955 143.034 192.072C142.906 191.912 142.735 191.779 142.522 191.672C142.319 191.555 142.09 191.469 141.834 191.416C141.578 191.363 141.295 191.336 140.986 191.336C140.378 191.336 139.93 191.459 139.642 191.704C139.354 191.939 139.21 192.253 139.21 192.648C139.21 192.904 139.268 193.117 139.386 193.288C139.514 193.448 139.684 193.581 139.898 193.688C140.111 193.795 140.351 193.885 140.618 193.96C140.895 194.035 141.188 194.109 141.498 194.184C141.828 194.259 142.159 194.349 142.49 194.456C142.82 194.563 143.119 194.707 143.386 194.888C143.663 195.069 143.882 195.304 144.042 195.592C144.202 195.869 144.282 196.221 144.282 196.648C144.282 197.128 144.154 197.56 143.898 197.944C143.642 198.328 143.268 198.632 142.778 198.856C142.287 199.069 141.684 199.176 140.97 199.176C140.447 199.176 139.972 199.139 139.546 199.064C139.13 198.989 138.762 198.888 138.442 198.76C138.122 198.632 137.839 198.493 137.594 198.344V196.344H139.018V198.488C138.858 198.403 138.73 198.317 138.634 198.232C138.548 198.136 138.49 198.045 138.458 197.96C138.426 197.864 138.41 197.768 138.41 197.672C138.42 197.576 138.436 197.48 138.458 197.384C138.628 197.565 138.836 197.72 139.082 197.848C139.338 197.965 139.62 198.061 139.93 198.136C140.25 198.2 140.591 198.232 140.954 198.232C141.391 198.232 141.754 198.179 142.042 198.072C142.33 197.965 142.548 197.805 142.698 197.592C142.858 197.379 142.938 197.112 142.938 196.792ZM147.578 188.808C147.29 188.808 147.05 188.723 146.858 188.552C146.666 188.371 146.57 188.12 146.57 187.8C146.57 187.48 146.666 187.235 146.858 187.064C147.05 186.893 147.29 186.808 147.578 186.808C147.876 186.808 148.122 186.893 148.314 187.064C148.506 187.235 148.602 187.48 148.602 187.8C148.602 188.12 148.506 188.371 148.314 188.552C148.122 188.723 147.876 188.808 147.578 188.808ZM148.394 190.568V197.512C148.394 197.811 148.516 198.008 148.762 198.104C149.007 198.2 149.332 198.248 149.738 198.248H149.786V199H145.594V198.248H145.626C146.031 198.248 146.356 198.2 146.602 198.104C146.858 198.008 146.986 197.811 146.986 197.512V192.12C146.986 191.885 146.884 191.725 146.682 191.64C146.479 191.555 146.17 191.475 145.754 191.4L145.578 191.368V190.568H148.394ZM150.843 199V198.248H150.891C151.158 198.248 151.392 198.227 151.595 198.184C151.798 198.141 151.952 198.061 152.059 197.944C152.176 197.827 152.235 197.667 152.235 197.464V192.12C152.235 191.96 152.187 191.843 152.091 191.768C152.006 191.683 151.872 191.613 151.691 191.56C151.51 191.507 151.28 191.453 151.003 191.4L150.843 191.368V190.568H153.435L153.563 192.344L153.659 192.456V198.088C153.659 198.12 153.723 198.152 153.851 198.184C153.979 198.205 154.134 198.221 154.315 198.232C154.496 198.243 154.662 198.248 154.811 198.248H154.859V199H150.843ZM160.427 199H156.411V198.248H156.459C156.608 198.248 156.774 198.243 156.955 198.232C157.136 198.221 157.291 198.205 157.419 198.184C157.558 198.152 157.627 198.12 157.627 198.088V193.048C157.627 192.685 157.584 192.387 157.499 192.152C157.414 191.917 157.27 191.741 157.067 191.624C156.864 191.507 156.592 191.448 156.251 191.448C155.899 191.448 155.558 191.517 155.227 191.656C154.896 191.795 154.576 192.003 154.267 192.28C153.968 192.557 153.67 192.904 153.371 193.32V192.392C153.67 191.955 153.979 191.592 154.299 191.304C154.63 191.005 154.982 190.781 155.355 190.632C155.728 190.483 156.134 190.408 156.571 190.408C157.094 190.408 157.536 190.499 157.899 190.68C158.262 190.851 158.544 191.123 158.747 191.496C158.95 191.859 159.051 192.317 159.051 192.872V197.464C159.051 197.667 159.104 197.827 159.211 197.944C159.328 198.061 159.483 198.141 159.675 198.184C159.878 198.227 160.118 198.248 160.395 198.248H160.427V199ZM170.444 191.592C169.964 191.56 169.553 191.549 169.212 191.56C168.87 191.56 168.582 191.592 168.348 191.656C168.113 191.709 167.921 191.811 167.772 191.96L167.532 191.832C167.681 191.501 167.852 191.219 168.044 190.984C168.236 190.749 168.449 190.557 168.684 190.408C168.929 190.259 169.196 190.163 169.484 190.12C169.772 190.067 170.092 190.056 170.444 190.088V191.592ZM165.468 196.456C164.817 196.456 164.241 196.333 163.74 196.088C163.249 195.843 162.86 195.496 162.572 195.048C162.294 194.589 162.156 194.056 162.156 193.448C162.156 192.851 162.294 192.323 162.572 191.864C162.86 191.405 163.254 191.048 163.756 190.792C164.257 190.536 164.828 190.408 165.468 190.408C166.118 190.408 166.694 190.536 167.196 190.792C167.697 191.048 168.086 191.405 168.364 191.864C168.652 192.323 168.796 192.851 168.796 193.448C168.796 194.056 168.652 194.589 168.364 195.048C168.086 195.496 167.697 195.843 167.196 196.088C166.694 196.333 166.118 196.456 165.468 196.456ZM165.468 195.512C165.873 195.512 166.22 195.437 166.508 195.288C166.796 195.128 167.014 194.893 167.164 194.584C167.313 194.275 167.388 193.896 167.388 193.448C167.388 193 167.313 192.621 167.164 192.312C167.014 191.992 166.796 191.752 166.508 191.592C166.22 191.421 165.873 191.336 165.468 191.336C165.073 191.336 164.732 191.421 164.444 191.592C164.156 191.752 163.937 191.992 163.788 192.312C163.638 192.621 163.564 193 163.564 193.448C163.564 193.896 163.638 194.275 163.788 194.584C163.937 194.893 164.156 195.128 164.444 195.288C164.732 195.437 165.073 195.512 165.468 195.512ZM164.908 202.856C164.214 202.856 163.59 202.792 163.036 202.664C162.481 202.536 162.044 202.317 161.724 202.008C161.414 201.709 161.26 201.32 161.26 200.84C161.26 200.541 161.329 200.28 161.468 200.056C161.606 199.832 161.814 199.619 162.092 199.416C162.369 199.213 162.726 199.011 163.164 198.808L163.676 199.144C163.398 199.315 163.174 199.48 163.004 199.64C162.844 199.811 162.726 199.981 162.652 200.152C162.577 200.323 162.54 200.504 162.54 200.696C162.54 200.952 162.62 201.165 162.78 201.336C162.95 201.517 163.212 201.656 163.564 201.752C163.916 201.848 164.38 201.896 164.956 201.896H166.044C166.598 201.896 167.078 201.832 167.484 201.704C167.889 201.576 168.204 201.389 168.428 201.144C168.652 200.899 168.764 200.611 168.764 200.28C168.764 199.971 168.652 199.741 168.428 199.592C168.214 199.443 167.82 199.368 167.244 199.368H163.612H163.564C163.158 199.251 162.822 199.117 162.556 198.968C162.289 198.808 162.097 198.627 161.98 198.424C161.862 198.221 161.804 197.997 161.804 197.752C161.804 197.475 161.873 197.219 162.012 196.984C162.15 196.749 162.353 196.525 162.62 196.312C162.886 196.099 163.217 195.896 163.612 195.704L164.124 196.072C163.91 196.221 163.729 196.365 163.58 196.504C163.43 196.632 163.318 196.765 163.244 196.904C163.169 197.032 163.132 197.171 163.132 197.32C163.132 197.555 163.238 197.731 163.452 197.848C163.665 197.955 163.98 198.008 164.396 198.008H167.276C167.884 198.008 168.396 198.083 168.812 198.232C169.228 198.371 169.542 198.595 169.756 198.904C169.98 199.203 170.092 199.587 170.092 200.056C170.092 200.696 169.905 201.224 169.532 201.64C169.169 202.056 168.678 202.36 168.06 202.552C167.452 202.755 166.785 202.856 166.06 202.856H164.908ZM179.502 194.904L179.262 194.12L181.63 190.568H183.038V190.728L179.502 194.904ZM174.766 199L174.782 198.84L178.51 194.36L178.798 195.208L176.19 199H174.766ZM181.214 199.112C180.883 199.112 180.601 199.053 180.366 198.936C180.142 198.808 179.939 198.595 179.758 198.296C179.587 197.987 179.395 197.56 179.182 197.016L177.422 192.168C177.358 192.008 177.262 191.88 177.134 191.784C177.017 191.688 176.857 191.613 176.654 191.56C176.462 191.496 176.222 191.443 175.934 191.4L175.694 191.368L175.854 190.568H178.238L180.526 196.856C180.665 197.187 180.782 197.448 180.878 197.64C180.974 197.821 181.075 197.949 181.182 198.024C181.299 198.099 181.449 198.136 181.63 198.136C181.833 198.136 182.03 198.104 182.222 198.04C182.425 197.976 182.579 197.933 182.686 197.912L182.574 198.792C182.414 198.877 182.222 198.952 181.998 199.016C181.785 199.08 181.523 199.112 181.214 199.112Z"
    fill="currentColor" />
  <path
    d="M7.808 181.36C7.808 181.648 7.72267 181.888 7.552 182.08C7.37067 182.272 7.12 182.368 6.8 182.368C6.48 182.368 6.23467 182.272 6.064 182.08C5.89333 181.888 5.808 181.648 5.808 181.36C5.808 181.061 5.89333 180.816 6.064 180.624C6.23467 180.432 6.48 180.336 6.8 180.336C7.12 180.336 7.37067 180.432 7.552 180.624C7.72267 180.816 7.808 181.061 7.808 181.36ZM9.568 180.544L16.512 180.544C16.8107 180.544 17.008 180.421 17.104 180.176C17.2 179.931 17.248 179.605 17.248 179.2L17.248 179.152L18 179.152L18 183.344L17.248 183.344L17.248 183.312C17.248 182.907 17.2 182.581 17.104 182.336C17.008 182.08 16.8107 181.952 16.512 181.952L11.12 181.952C10.8853 181.952 10.7253 182.053 10.64 182.256C10.5547 182.459 10.4747 182.768 10.4 183.184L10.368 183.36L9.568 183.36L9.568 180.544ZM18 178.094L17.248 178.094L17.248 178.046C17.248 177.78 17.2267 177.545 17.184 177.342C17.1413 177.14 17.0613 176.985 16.944 176.878C16.8267 176.761 16.6667 176.702 16.464 176.702L11.12 176.702C10.96 176.702 10.8427 176.75 10.768 176.846C10.6827 176.932 10.6133 177.065 10.56 177.246C10.5067 177.428 10.4533 177.657 10.4 177.934L10.368 178.094L9.568 178.094L9.568 175.502L11.344 175.374L11.456 175.278L17.088 175.278C17.12 175.278 17.152 175.214 17.184 175.086C17.2053 174.958 17.2213 174.804 17.232 174.622C17.2427 174.441 17.248 174.276 17.248 174.126L17.248 174.078L18 174.078L18 178.094ZM18 168.51L18 172.526L17.248 172.526L17.248 172.478C17.248 172.329 17.2427 172.164 17.232 171.982C17.2213 171.801 17.2053 171.646 17.184 171.518C17.152 171.38 17.12 171.31 17.088 171.31L12.048 171.31C11.6853 171.31 11.3867 171.353 11.152 171.438C10.9173 171.524 10.7413 171.668 10.624 171.87C10.5067 172.073 10.448 172.345 10.448 172.686C10.448 173.038 10.5173 173.38 10.656 173.71C10.7947 174.041 11.0027 174.361 11.28 174.67C11.5573 174.969 11.904 175.268 12.32 175.566L11.392 175.566C10.9547 175.268 10.592 174.958 10.304 174.638C10.0053 174.308 9.78133 173.956 9.632 173.582C9.48267 173.209 9.408 172.804 9.408 172.366C9.408 171.844 9.49867 171.401 9.68 171.038C9.85067 170.676 10.1227 170.393 10.496 170.19C10.8587 169.988 11.3173 169.886 11.872 169.886L16.464 169.886C16.6667 169.886 16.8267 169.833 16.944 169.726C17.0613 169.609 17.1413 169.454 17.184 169.262C17.2267 169.06 17.248 168.82 17.248 168.542L17.248 168.51L18 168.51ZM17.232 162.974C17.232 162.504 17.152 162.104 16.992 161.774C16.8213 161.432 16.608 161.139 16.352 160.894C16.0853 160.648 15.8187 160.44 15.552 160.27L16.208 159.534C16.5813 159.758 16.9173 160.035 17.216 160.366C17.5147 160.686 17.7493 161.07 17.92 161.518C18.0907 161.955 18.176 162.456 18.176 163.022C18.176 163.896 17.9947 164.659 17.632 165.31C17.2587 165.96 16.7467 166.462 16.096 166.814C15.4347 167.166 14.6667 167.342 13.792 167.342C12.896 167.342 12.1227 167.16 11.472 166.798C10.8213 166.424 10.3147 165.907 9.952 165.246C9.58933 164.584 9.408 163.806 9.408 162.91C9.408 162.355 9.46133 161.87 9.568 161.454C9.664 161.027 9.78133 160.67 9.92 160.382C10.0587 160.094 10.1813 159.88 10.288 159.742L12.576 159.742L12.576 161.182L10.592 161.182C10.6133 161.064 10.6453 160.958 10.688 160.862C10.72 160.766 10.7733 160.686 10.848 160.622C10.912 160.558 10.9867 160.51 11.072 160.478C11.1573 160.446 11.2533 160.435 11.36 160.446C11.072 160.659 10.832 160.99 10.64 161.438C10.448 161.886 10.352 162.376 10.352 162.91C10.352 163.571 10.4907 164.12 10.768 164.558C11.0453 164.984 11.4453 165.304 11.968 165.518C12.48 165.731 13.088 165.838 13.792 165.838C14.336 165.838 14.8213 165.779 15.248 165.662C15.6747 165.534 16.0373 165.352 16.336 165.118C16.624 164.883 16.848 164.59 17.008 164.238C17.1573 163.875 17.232 163.454 17.232 162.974ZM9.456 152.425L10.96 152.425C10.928 152.499 10.9067 152.59 10.896 152.697C10.8853 152.803 10.8747 152.915 10.864 153.033C10.8533 153.139 10.848 153.246 10.848 153.353C10.848 153.641 10.88 153.902 10.944 154.137C11.008 154.361 11.1093 154.569 11.248 154.761C11.376 154.942 11.5467 155.118 11.76 155.289C11.9733 155.449 12.2293 155.619 12.528 155.801L11.68 155.801C11.2 155.577 10.7893 155.331 10.448 155.065C10.1067 154.787 9.84533 154.483 9.664 154.153C9.48267 153.811 9.392 153.433 9.392 153.017C9.392 152.889 9.39733 152.771 9.408 152.665C9.41867 152.558 9.43467 152.478 9.456 152.425ZM18 158.329L17.248 158.329L17.248 158.281C17.248 157.875 17.2 157.55 17.104 157.305C16.9973 157.059 16.784 156.937 16.464 156.937L11.12 156.937C10.96 156.937 10.8427 156.985 10.768 157.081C10.6827 157.166 10.6133 157.299 10.56 157.481C10.5067 157.662 10.4533 157.891 10.4 158.169L10.368 158.329L9.568 158.329L9.568 155.737L11.776 155.609L11.68 155.513L16.832 155.513C16.9493 155.513 17.04 155.438 17.104 155.289C17.168 155.139 17.2107 154.963 17.232 154.761C17.2427 154.558 17.248 154.382 17.248 154.233L17.248 153.897L18 153.897L18 158.329ZM13.856 149.964C14.4427 149.964 14.9493 149.895 15.376 149.756C15.8027 149.607 16.1547 149.404 16.432 149.148C16.6987 148.892 16.9013 148.593 17.04 148.252C17.168 147.911 17.232 147.537 17.232 147.132C17.232 146.695 17.152 146.316 16.992 145.996C16.8213 145.665 16.6133 145.383 16.368 145.148C16.1227 144.913 15.8667 144.716 15.6 144.556L16.24 143.788C16.6027 143.991 16.9333 144.252 17.232 144.572C17.5307 144.892 17.7653 145.271 17.936 145.708C18.096 146.135 18.176 146.62 18.176 147.164C18.176 147.964 18.0053 148.689 17.664 149.34C17.3227 149.98 16.8267 150.487 16.176 150.86C15.5253 151.233 14.7467 151.42 13.84 151.42C12.9547 151.42 12.1813 151.249 11.52 150.908C10.8587 150.556 10.3413 150.081 9.968 149.484C9.59467 148.887 9.408 148.209 9.408 147.452C9.408 146.844 9.50933 146.316 9.712 145.868C9.904 145.409 10.2027 145.025 10.608 144.716C11.0027 144.407 11.4987 144.172 12.096 144.012C12.6827 143.852 13.376 143.772 14.176 143.772L14.176 150.284L13.264 150.284L13.264 144.828L13.616 145.26C13.0293 145.281 12.5333 145.34 12.128 145.436C11.712 145.521 11.376 145.649 11.12 145.82C10.8533 145.991 10.6613 146.215 10.544 146.492C10.416 146.759 10.352 147.079 10.352 147.452C10.352 147.815 10.4267 148.151 10.576 148.46C10.7253 148.769 10.9493 149.036 11.248 149.26C11.5467 149.484 11.9147 149.66 12.352 149.788C12.7893 149.905 13.2907 149.964 13.856 149.964ZM12.864 136.772L13.712 136.772C13.7867 137.391 13.872 137.924 13.968 138.372C14.064 138.82 14.176 139.199 14.304 139.508C14.432 139.817 14.576 140.068 14.736 140.26C14.8853 140.441 15.0613 140.575 15.264 140.66C15.4667 140.735 15.6907 140.772 15.936 140.772C16.2133 140.772 16.4533 140.713 16.656 140.596C16.848 140.479 16.9973 140.308 17.104 140.084C17.2107 139.86 17.264 139.604 17.264 139.316C17.264 138.964 17.1787 138.644 17.008 138.356C16.8373 138.068 16.592 137.796 16.272 137.54C15.952 137.284 15.5573 137.039 15.088 136.804L16.096 136.804C16.5227 136.996 16.8907 137.231 17.2 137.508C17.5093 137.785 17.7493 138.105 17.92 138.468C18.0907 138.82 18.176 139.22 18.176 139.668C18.176 140.159 18.0907 140.601 17.92 140.996C17.7387 141.38 17.4827 141.684 17.152 141.908C16.8107 142.132 16.4053 142.244 15.936 142.244C15.4987 142.244 15.1147 142.143 14.784 141.94C14.4533 141.727 14.1707 141.401 13.936 140.964C13.6907 140.516 13.4827 139.951 13.312 139.268C13.1413 138.575 12.992 137.743 12.864 136.772ZM18 136.884L16.192 137.012L16.112 137.124L12.048 137.124C11.632 137.124 11.3013 137.183 11.056 137.3C10.8 137.407 10.6187 137.583 10.512 137.828C10.4053 138.073 10.352 138.399 10.352 138.804C10.352 139.401 10.448 139.892 10.64 140.276C10.832 140.66 11.0453 140.948 11.28 141.14C11.1733 141.151 11.072 141.14 10.976 141.108C10.88 141.065 10.7947 141.012 10.72 140.948C10.6347 140.873 10.5653 140.788 10.512 140.692C10.448 140.585 10.4 140.473 10.368 140.356L12.16 140.356L12.16 141.764L10.304 141.764C10.1867 141.604 10.0587 141.385 9.92 141.108C9.78133 140.831 9.664 140.489 9.568 140.084C9.46133 139.679 9.408 139.225 9.408 138.724C9.408 138.308 9.45067 137.924 9.536 137.572C9.62133 137.209 9.76 136.889 9.952 136.612C10.144 136.324 10.4 136.105 10.72 135.956C11.0293 135.796 11.4133 135.716 11.872 135.716L16.576 135.716C16.7253 135.716 16.8427 135.663 16.928 135.556C17.0133 135.439 17.0773 135.284 17.12 135.092C17.152 134.889 17.1787 134.655 17.2 134.388L17.216 134.34L18 134.34L18 136.884ZM15.792 128.062C15.5467 128.062 15.344 128.126 15.184 128.255C15.0133 128.372 14.88 128.537 14.784 128.75C14.6773 128.953 14.5867 129.188 14.512 129.454C14.4373 129.711 14.368 129.983 14.304 130.27C14.2293 130.612 14.1387 130.953 14.032 131.295C13.9147 131.625 13.7707 131.929 13.6 132.207C13.4187 132.484 13.184 132.703 12.896 132.863C12.608 133.023 12.2507 133.103 11.824 133.103C11.3333 133.103 10.9067 132.985 10.544 132.751C10.1813 132.505 9.904 132.153 9.712 131.695C9.50933 131.236 9.408 130.676 9.408 130.014C9.408 129.502 9.44 129.06 9.504 128.686C9.568 128.302 9.648 127.982 9.744 127.726C9.84 127.47 9.93067 127.278 10.016 127.15L11.936 127.15L11.936 128.558L10.32 128.558C10.32 128.441 10.336 128.345 10.368 128.27C10.4 128.185 10.448 128.121 10.512 128.078C10.576 128.025 10.656 127.993 10.752 127.982C10.848 127.961 10.9547 127.956 11.072 127.966C10.912 128.094 10.7787 128.265 10.672 128.478C10.5547 128.681 10.4693 128.91 10.416 129.166C10.3627 129.422 10.336 129.705 10.336 130.014C10.336 130.622 10.4587 131.07 10.704 131.358C10.9387 131.646 11.2533 131.791 11.648 131.791C11.904 131.791 12.1173 131.732 12.288 131.614C12.448 131.486 12.5813 131.316 12.688 131.103C12.7947 130.889 12.8853 130.649 12.96 130.383C13.0347 130.105 13.1093 129.812 13.184 129.502C13.2587 129.172 13.3493 128.841 13.456 128.511C13.5627 128.18 13.7067 127.881 13.888 127.614C14.0693 127.337 14.304 127.118 14.592 126.958C14.8693 126.798 15.2213 126.718 15.648 126.718C16.128 126.718 16.56 126.846 16.944 127.102C17.328 127.358 17.632 127.732 17.856 128.223C18.0693 128.713 18.176 129.316 18.176 130.031C18.176 130.553 18.1387 131.028 18.064 131.455C17.9893 131.871 17.888 132.239 17.76 132.559C17.632 132.879 17.4933 133.161 17.344 133.407L15.344 133.407L15.344 131.982L17.488 131.983C17.4027 132.143 17.3173 132.271 17.232 132.367C17.136 132.452 17.0453 132.511 16.96 132.543C16.864 132.575 16.768 132.591 16.672 132.591C16.576 132.58 16.48 132.564 16.384 132.543C16.5653 132.372 16.72 132.164 16.848 131.919C16.9653 131.663 17.0613 131.38 17.136 131.071C17.2 130.751 17.232 130.409 17.232 130.046C17.232 129.609 17.1787 129.246 17.072 128.959C16.9653 128.67 16.8053 128.452 16.592 128.302C16.3787 128.142 16.112 128.062 15.792 128.062ZM7.808 123.422C7.808 123.71 7.72267 123.95 7.552 124.142C7.37067 124.334 7.12 124.43 6.8 124.43C6.48 124.43 6.23467 124.334 6.064 124.142C5.89333 123.95 5.808 123.71 5.808 123.422C5.808 123.124 5.89333 122.878 6.064 122.686C6.23467 122.494 6.48 122.398 6.8 122.398C7.12 122.398 7.37067 122.494 7.552 122.686C7.72267 122.878 7.808 123.124 7.808 123.422ZM9.568 122.606L16.512 122.607C16.8107 122.607 17.008 122.484 17.104 122.239C17.2 121.993 17.248 121.668 17.248 121.262L17.248 121.215L18 121.215L18 125.407L17.248 125.407L17.248 125.375C17.248 124.969 17.2 124.644 17.104 124.399C17.008 124.143 16.8107 124.015 16.512 124.015L11.12 124.014C10.8853 124.014 10.7253 124.116 10.64 124.319C10.5547 124.521 10.4747 124.831 10.4 125.247L10.368 125.423L9.568 125.423L9.568 122.606ZM18 120.157L17.248 120.157L17.248 120.109C17.248 119.842 17.2267 119.608 17.184 119.405C17.1413 119.202 17.0613 119.048 16.944 118.941C16.8267 118.824 16.6667 118.765 16.464 118.765L11.12 118.765C10.96 118.765 10.8427 118.813 10.768 118.909C10.6827 118.994 10.6133 119.128 10.56 119.309C10.5067 119.49 10.4533 119.72 10.4 119.997L10.368 120.157L9.568 120.157L9.568 117.565L11.344 117.437L11.456 117.341L17.088 117.341C17.12 117.341 17.152 117.277 17.184 117.149C17.2053 117.021 17.2213 116.866 17.232 116.685C17.2427 116.504 17.248 116.338 17.248 116.189L17.248 116.141L18 116.141L18 120.157ZM18 110.573L18 114.589L17.248 114.589L17.248 114.541C17.248 114.392 17.2427 114.226 17.232 114.045C17.2213 113.864 17.2053 113.709 17.184 113.581C17.152 113.442 17.12 113.373 17.088 113.373L12.048 113.373C11.6853 113.373 11.3867 113.416 11.152 113.501C10.9173 113.586 10.7413 113.73 10.624 113.933C10.5067 114.136 10.448 114.408 10.448 114.749C10.448 115.101 10.5173 115.442 10.656 115.773C10.7947 116.104 11.0027 116.424 11.28 116.733C11.5573 117.032 11.904 117.33 12.32 117.629L11.392 117.629C10.9547 117.33 10.592 117.021 10.304 116.701C10.0053 116.37 9.78133 116.018 9.632 115.645C9.48267 115.272 9.408 114.866 9.408 114.429C9.408 113.906 9.49867 113.464 9.68 113.101C9.85067 112.738 10.1227 112.456 10.496 112.253C10.8587 112.05 11.3173 111.949 11.872 111.949L16.464 111.949C16.6667 111.949 16.8267 111.896 16.944 111.789C17.0613 111.672 17.1413 111.517 17.184 111.325C17.2267 111.122 17.248 110.882 17.248 110.605L17.248 110.573L18 110.573ZM10.592 100.556C10.56 101.036 10.5493 101.447 10.56 101.788C10.56 102.13 10.592 102.418 10.656 102.652C10.7093 102.887 10.8107 103.079 10.96 103.228L10.832 103.468C10.5013 103.319 10.2187 103.148 9.984 102.956C9.74933 102.764 9.55733 102.551 9.408 102.316C9.25867 102.071 9.16267 101.804 9.12 101.516C9.06667 101.228 9.056 100.908 9.088 100.556L10.592 100.556ZM15.456 105.532C15.456 106.183 15.3333 106.759 15.088 107.26C14.8427 107.751 14.496 108.14 14.048 108.428C13.5893 108.706 13.056 108.844 12.448 108.844C11.8507 108.844 11.3227 108.706 10.864 108.428C10.4053 108.14 10.048 107.746 9.792 107.244C9.536 106.743 9.408 106.172 9.408 105.532C9.408 104.882 9.536 104.306 9.792 103.804C10.048 103.303 10.4053 102.914 10.864 102.636C11.3227 102.348 11.8507 102.204 12.448 102.204C13.056 102.204 13.5893 102.348 14.048 102.636C14.496 102.914 14.8427 103.303 15.088 103.804C15.3333 104.306 15.456 104.882 15.456 105.532ZM14.512 105.532C14.512 105.127 14.4373 104.78 14.288 104.492C14.128 104.204 13.8933 103.986 13.584 103.836C13.2747 103.687 12.896 103.612 12.448 103.612C12 103.612 11.6213 103.687 11.312 103.836C10.992 103.986 10.752 104.204 10.592 104.492C10.4213 104.78 10.336 105.127 10.336 105.532C10.336 105.927 10.4213 106.268 10.592 106.556C10.752 106.844 10.992 107.063 11.312 107.212C11.6213 107.362 12 107.436 12.448 107.436C12.896 107.436 13.2747 107.362 13.584 107.212C13.8933 107.063 14.128 106.844 14.288 106.556C14.4373 106.268 14.512 105.927 14.512 105.532ZM21.856 106.092C21.856 106.786 21.792 107.41 21.664 107.964C21.536 108.519 21.3173 108.956 21.008 109.276C20.7093 109.586 20.32 109.74 19.84 109.74C19.5413 109.74 19.28 109.671 19.056 109.532C18.832 109.394 18.6187 109.186 18.416 108.908C18.2133 108.631 18.0107 108.274 17.808 107.836L18.144 107.324C18.3147 107.602 18.48 107.826 18.64 107.996C18.8107 108.156 18.9813 108.274 19.152 108.348C19.3227 108.423 19.504 108.46 19.696 108.46C19.952 108.46 20.1653 108.38 20.336 108.22C20.5173 108.05 20.656 107.788 20.752 107.436C20.848 107.084 20.896 106.62 20.896 106.044L20.896 104.956C20.896 104.402 20.832 103.922 20.704 103.516C20.576 103.111 20.3893 102.796 20.144 102.572C19.8987 102.348 19.6107 102.236 19.28 102.236C18.9707 102.236 18.7413 102.348 18.592 102.572C18.4427 102.786 18.368 103.18 18.368 103.756L18.368 107.388L18.368 107.436C18.2507 107.842 18.1173 108.178 17.968 108.444C17.808 108.711 17.6267 108.903 17.424 109.02C17.2213 109.138 16.9973 109.196 16.752 109.196C16.4747 109.196 16.2187 109.127 15.984 108.988C15.7493 108.85 15.5253 108.647 15.312 108.38C15.0987 108.114 14.896 107.783 14.704 107.388L15.072 106.876C15.2213 107.09 15.3653 107.271 15.504 107.42C15.632 107.57 15.7653 107.682 15.904 107.756C16.032 107.831 16.1707 107.868 16.32 107.868C16.5547 107.868 16.7307 107.762 16.848 107.548C16.9547 107.335 17.008 107.02 17.008 106.604L17.008 103.724C17.008 103.116 17.0827 102.604 17.232 102.188C17.3707 101.772 17.5947 101.458 17.904 101.244C18.2027 101.02 18.5867 100.908 19.056 100.908C19.696 100.908 20.224 101.095 20.64 101.468C21.056 101.831 21.36 102.322 21.552 102.94C21.7547 103.548 21.856 104.215 21.856 104.94L21.856 106.092ZM18.416 93.146L11.12 94.426C10.9813 94.4473 10.8693 94.5113 10.784 94.618C10.6987 94.7247 10.6293 94.8687 10.576 95.05C10.512 95.2207 10.4533 95.434 10.4 95.69L10.368 95.866L9.568 95.722L9.568 93.29L16.912 92.122L17.84 92.49L18.416 93.146ZM17.008 92.474C16.3893 92.186 15.7707 91.898 15.152 91.61C14.5227 91.3113 13.8987 91.018 13.28 90.73C12.6613 90.4313 12.0427 90.138 11.424 89.85C10.8053 89.5513 10.1867 89.258 9.568 88.97L9.568 87.61L9.728 87.61C10.2507 87.898 10.7787 88.186 11.312 88.474C11.8453 88.762 12.3787 89.05 12.912 89.338C13.4347 89.6153 13.968 89.9033 14.512 90.202C15.0453 90.49 15.584 90.7833 16.128 91.082C16.6613 91.37 17.2 91.6633 17.744 91.962C18.4907 92.3567 19.1147 92.7353 19.616 93.098C20.128 93.4607 20.5387 93.8073 20.848 94.138C21.1573 94.4687 21.376 94.8047 21.504 95.146C21.6427 95.4873 21.712 95.8393 21.712 96.202C21.712 96.5647 21.6693 96.8687 21.584 97.114C21.5093 97.3593 21.4507 97.5193 21.408 97.594L20.16 97.338C20.192 97.2633 20.24 97.1087 20.304 96.874C20.3787 96.65 20.416 96.3673 20.416 96.026C20.416 95.7807 20.368 95.53 20.272 95.274C20.176 95.018 20.0053 94.7567 19.76 94.49C19.5253 94.2233 19.184 93.9407 18.736 93.642C18.288 93.3327 17.7173 93.002 17.024 92.65L17.008 92.474Z"
    fill="currentColor" />
</svg>
  